<svg xmlns="http://www.w3.org/2000/svg" viewBox="0 0 800 800">
  <defs>
    <linearGradient id="g" x1="0%" y1="0%" x2="100%" y2="100%">
      <stop offset="0%" stop-color="#2c3e7a"/>
      <stop offset="100%" stop-color="#1a1a3e"/>
    </linearGradient>
  </defs>
  <rect width="800" height="800" fill="url(#g)"/>
  <path d="M100,400 Q175,300 250,400 Q325,500 400,380 Q475,260 550,380 Q625,500 700,400" fill="none" stroke="rgba(255,255,255,0.3)" stroke-width="3"/>
  <path d="M100,440 Q175,340 250,440 Q325,540 400,420 Q475,300 550,420 Q625,540 700,440" fill="none" stroke="rgba(255,255,255,0.15)" stroke-width="2"/>
  <path d="M100,360 Q175,260 250,360 Q325,460 400,340 Q475,220 550,340 Q625,460 700,360" fill="none" stroke="rgba(255,255,255,0.08)" stroke-width="1.5"/>
  <text x="400" y="580" font-family="sans-serif" font-size="24" fill="rgba(255,255,255,0.7)" text-anchor="middle">株式会社ソニーミュージック</text>
  <text x="400" y="630" font-family="sans-serif" font-size="20" fill="rgba(255,255,255,0.45)" text-anchor="middle">PR / Silver / 2024</text>
</svg>
